<svg xmlns="http://www.w3.org/2000/svg" viewBox="0 0 1600 540" role="img" aria-label="Nidhi Verma — AI Engineering, Full-Stack Engineering and Developer Experience"><rect width="1600" height="540" fill="#111"/><rect x="40" y="40" width="1520" height="460" rx="28" fill="#181818" stroke="#444"/><text x="90" y="125" fill="#fff" font-family="Arial, sans-serif" font-size="54" font-weight="700">NIDHI VERMA</text><text x="92" y="170" fill="#b7ff55" font-family="Arial, sans-serif" font-size="24" font-weight="700">AI ENGINEERING × FULL-STACK × DEVELOPER EXPERIENCE</text><text x="92" y="225" fill="#fff" font-family="Arial, sans-serif" font-size="34" font-weight="700">From Context → Confidence</text><text x="92" y="265" fill="#ccc" font-family="Arial, sans-serif" font-size="20">Build, evaluate and explain AI-powered software</text><text x="92" y="292" fill="#ccc" font-family="Arial, sans-serif" font-size="20">so developers can build, ship and trust it.</text><g font-family="Arial, sans-serif" text-anchor="middle"><rect x="80" y="345" width="260" height="105" rx="18" fill="#242424" stroke="#555"/><text x="210" y="385" fill="#b7ff55" font-size="20" font-weight="700">FULL-STACK</text><text x="210" y="415" fill="#ddd" font-size="16">React · TypeScript · Node · Java</text><rect x="365" y="345" width="260" height="105" rx="18" fill="#242424" stroke="#555"/><text x="495" y="385" fill="#b7ff55" font-size="20" font-weight="700">AI ENGINEERING</text><text x="495" y="415" fill="#ddd" font-size="16">Agents · RAG · MCP · Evaluation</text><rect x="650" y="345" width="260" height="105" rx="18" fill="#242424" stroke="#555"/><text x="780" y="385" fill="#b7ff55" font-size="20" font-weight="700">RELIABILITY</text><text x="780" y="415" fill="#ddd" font-size="16">Regression · Drift · Evidence</text><rect x="935" y="345" width="260" height="105" rx="18" fill="#242424" stroke="#555"/><text x="1065" y="385" fill="#b7ff55" font-size="20" font-weight="700">DEVELOPER EXPERIENCE</text><text x="1065" y="415" fill="#ddd" font-size="16">Docs · Tutorials · Workshops</text><rect x="1220" y="345" width="260" height="105" rx="18" fill="#242424" stroke="#555"/><text x="1350" y="385" fill="#b7ff55" font-size="20" font-weight="700">LEARNING</text><text x="1350" y="415" fill="#ddd" font-size="16">Build → Teach → Improve</text></g><text x="90" y="485" fill="#888" font-family="Arial, sans-serif" font-size="16">11+ years engineering · production-inspired systems · public learning artifacts</text></svg>